<?xml version="1.0" encoding="UTF-8" standalone="no"?>
<!-- Creator: CorelDRAW -->

<svg
   xmlns:dc="http://purl.org/dc/elements/1.1/"
   xmlns:cc="http://creativecommons.org/ns#"
   xmlns:rdf="http://www.w3.org/1999/02/22-rdf-syntax-ns#"
   xmlns:svg="http://www.w3.org/2000/svg"
   xmlns="http://www.w3.org/2000/svg"
   xmlns:sodipodi="http://sodipodi.sourceforge.net/DTD/sodipodi-0.dtd"
   xmlns:inkscape="http://www.inkscape.org/namespaces/inkscape"
   xml:space="preserve"
   width="210mm"
   height="120mm"
   style="shape-rendering:geometricPrecision; text-rendering:geometricPrecision; image-rendering:optimizeQuality; fill-rule:evenodd; clip-rule:evenodd"
   viewBox="0 0 210 120"
   id="svg3083"
   version="1.1"
   inkscape:version="0.48.4 r9939"
   sodipodi:docname="pentakool.svg"><metadata
     id="metadata3094"><rdf:RDF><cc:Work
         rdf:about=""><dc:format>image/svg+xml</dc:format><dc:type
           rdf:resource="http://purl.org/dc/dcmitype/StillImage" /></cc:Work></rdf:RDF></metadata><sodipodi:namedview
     pagecolor="#ffffff"
     bordercolor="#666666"
     borderopacity="1"
     objecttolerance="10"
     gridtolerance="10"
     guidetolerance="10"
     inkscape:pageopacity="0"
     inkscape:pageshadow="2"
     inkscape:window-width="1920"
     inkscape:window-height="1023"
     id="namedview3092"
     showgrid="false"
     inkscape:zoom="0.36016931"
     inkscape:cx="1497.5685"
     inkscape:cy="344.04972"
     inkscape:window-x="0"
     inkscape:window-y="0"
     inkscape:window-maximized="1"
     inkscape:current-layer="svg3083" /><defs
     id="defs3085"><style
       type="text/css"
       id="style3087">
    .fil0 {fill:#7A897F}
   </style></defs><path
     style="fill:#000000"
     d="M 188.2448,419.80091 C 133.26007,412.79174 82.906577,388.94748 45.470228,352.19179 20.87239,328.04121 7.8884035,299.82428 7.8070751,270.34183 c -0.043629,-15.81592 7.2167869,-46.08296 14.7836239,-61.6296 6.039501,-12.40862 6.230928,-12.52575 28.255604,-17.28957 34.83566,-7.53476 83.195687,-15.35939 117.408437,-18.99664 43.37399,-4.6112 119.47482,-1.88672 150.48424,5.38748 25.93833,6.08463 48.41323,13.7362 41.24952,14.04339 -43.58795,1.8691 -150.24134,18.38618 -197.48447,30.5838 -49.38831,12.75148 -74.99351,22.88184 -79.084758,31.28885 -16.896079,34.71934 5.45976,72.56543 54.678378,92.56475 24.37364,9.9039 41.47799,12.7309 76.52679,12.64827 76.33733,-0.17994 167.49054,-31.41453 294.30287,-100.84588 24.01654,-13.14935 100.47213,-58.91962 103.94389,-62.22616 4.60503,-4.38592 -60.59486,-48.24226 -103.94389,-69.91724 C 425.50838,84.242904 359.28097,65.323882 286.80955,62.501432 200.42956,59.137306 129.23405,82.97442 62.242876,137.68906 49.809196,147.84419 48.851594,148.1964 50.665124,141.94736 60.610877,107.6764 94.469544,64.50564 128.55065,42.641109 176.99233,11.563637 242.30844,-1.3204825 316.68639,5.529845 441.12075,16.990448 538.28633,63.678076 691.61108,185.67948 c 32.09571,25.53874 39.99211,33.08189 36.09414,34.47938 -2.74427,0.98385 -15.60958,4.61255 -28.58958,8.06376 -34.16477,9.08395 -76.76268,30.11963 -150.34615,74.24389 -89.70195,53.78971 -136.94635,76.50191 -202.60005,97.3977 -54.53929,17.35839 -116.64543,25.19878 -157.92464,19.9367 l 0,0 z"
     id="path3096"
     inkscape:connector-curvature="0"
     transform="matrix(0.28222223,0,0,0.28222223,-2.1531847e-6,0)" /></svg>